Coordinates
version=1
nRows=26
nColumns=22
inDegrees=yes

Units are S.I. units (second, meters, Newtons, ...)
If the header above contains a line with 'inDegrees', this indicates whether rotational values are in degrees (yes) or radians (no).

endheader
time	pelvis_tilt	pelvis_list	pelvis_rotation	pelvis_tx	pelvis_ty	pelvis_tz	hip_flexion_r	hip_adduction_r	hip_rotation_r	knee_angle_r	ankle_angle_r	subtalar_angle_r	hip_flexion_l	hip_adduction_l	hip_rotation_l	knee_angle_l	ankle_angle_l	subtalar_angle_l	lumbar_extension	lumbar_bending	lumbar_rotation
      3.59000000	      2.37395530	      2.19872532	    -32.21269056	     -0.25611184	      0.89352990	     -0.07804622	     -5.28986470	     -4.25399372	      8.19035441	    -40.06947177	      6.98067134	      5.92047145	     17.32148350	      1.89105239	    -15.44614160	    -24.36357351	      8.96511785	     -5.29941442	     -6.23122410	     -3.84338903	      9.45476076
      3.60000000	      2.41681671	      2.17613606	    -32.43539186	     -0.25064349	      0.89396141	     -0.07686199	     -4.08746333	     -4.33997635	      8.29168035	    -42.41744723	      6.17597063	      6.25677183	     16.87840153	      1.96964696	    -15.72114440	    -24.37288614	      9.22980859	     -5.18583458	     -6.29329713	     -3.90530204	      9.51952257
      3.61000000	      2.49460201	      2.16509604	    -32.62117546	     -0.24523946	      0.89440568	     -0.07574723	     -2.88874272	     -4.46960285	      8.28598095	    -44.71953664	      5.50244926	      6.48222468	     16.40085901	      2.10376952	    -15.94712225	    -24.34365795	      9.49591807	     -5.07465410	     -6.39070630	     -3.99347690	      9.49745172
      3.62000000	      2.63763611	      2.16124601	    -32.79399725	     -0.23987476	      0.89491820	     -0.07468110	     -1.73277418	     -4.68661898	      8.14967191	    -46.93080493	      5.04739530	      6.44113460	     15.83194320	      2.31418816	    -16.11280204	    -24.22957721	      9.75281846	     -4.99547464	     -6.54840813	     -4.12662946	      9.49306667
      3.63000000	      2.77872911	      2.16835070	    -32.92166492	     -0.23454274	      0.89541396	     -0.07371638	     -0.56718222	     -4.96043513	      7.86493928	    -49.01513857	      4.79701027	      6.18715675	     15.27438290	      2.55033911	    -16.26021444	    -24.10312938	      9.96712780	     -4.92034251	     -6.69941326	     -4.25823476	      9.43810552
      3.64000000	      2.97066279	      2.18059579	    -33.02359744	     -0.22919915	      0.89600990	     -0.07283127	      0.52999610	     -5.31767287	      7.48558089	    -50.91341666	      4.79158060	      5.76317954	     14.62251699	      2.86385491	    -16.31590362	    -23.86320215	     10.17241767	     -4.85671811	     -6.89359322	     -4.41517525	      9.36189481
      3.65000000	      3.17917344	      2.14676599	    -33.07327997	     -0.22384084	      0.89670870	     -0.07201967	      1.53709397	     -5.69777188	      6.96694700	    -52.57383300	      5.01835419	      4.57226802	     13.92549789	      3.15405753	    -16.36997003	    -23.61300204	     10.34355254	     -4.79728535	     -7.13023924	     -4.52426794	      9.24109111
      3.66000000	      3.41251572	      2.10381288	    -33.08971107	     -0.21846907	      0.89750326	     -0.07127989	      2.46576052	     -6.12390493	      6.38653159	    -53.99234396	      5.45630775	      3.37968625	     13.16542774	      3.47638602	    -16.36676637	    -23.28531888	     10.48358737	     -4.72415537	     -7.39270183	     -4.62595693	      9.07368559
      3.67000000	      3.64409015	      2.02232753	    -33.06121588	     -0.21309575	      0.89838720	     -0.07059390	      3.30902003	     -6.54602721	      5.73365380	    -55.14453558	      6.06733698	      1.96406967	     12.37199937	      3.77347026	    -16.32072928	    -22.92965020	     10.60211108	     -4.63111909	     -7.67343630	     -4.67804098	      8.87594205
      3.68000000	      3.86819523	      1.90784603	    -32.97965257	     -0.20770568	      0.89935420	     -0.06995642	      4.06480822	     -6.96400259	      4.99762063	    -56.01854880	      6.78923125	      0.42161876	     11.55691362	      4.04014817	    -16.24961168	    -22.55456044	     10.65934133	     -4.52271516	     -7.96065049	     -4.68243634	      8.63729385
      3.69000000	      4.04916393	      1.73768859	    -32.86323937	     -0.20239047	      0.90035479	     -0.06933581	      4.75735190	     -7.28694139	      4.27241026	    -56.62771651	      7.62685981	     -1.27918415	     10.74959080	      4.23069160	    -16.11585011	    -22.17613969	     10.79631939	     -4.38698050	     -8.24222799	     -4.60129602	      8.39307174
      3.70000000	      4.22405249	      1.54270193	    -32.68300552	     -0.19707188	      0.90141349	     -0.06874704	      5.35989588	     -7.59235299	      3.47062283	    -56.97302216	      8.47765636	     -2.95582269	      9.93253256	      4.38971555	    -15.96187404	    -21.79578828	     10.86178344	     -4.25050829	     -8.52761264	     -4.48355110	      8.08306162
      3.71000000	      4.35000610	      1.32212676	    -32.47557958	     -0.19184325	      0.90244916	     -0.06815311	      5.92574879	     -7.82574540	      2.66296074	    -57.06956382	      9.36822693	     -4.58568881	      9.15274705	      4.48256294	    -15.79848027	    -21.42399519	     10.97089088	     -4.11116616	     -8.78572734	     -4.31054697	      7.76479086
      3.72000000	      4.46259003	      1.08602209	    -32.21201646	     -0.18663506	      0.90348393	     -0.06758580	      6.42218745	     -8.03379996	      1.79025207	    -56.93665561	     10.23548140	     -6.09963238	      8.38276940	      4.54714964	    -15.59059622	    -21.06158149	     11.05033668	     -3.98081723	     -9.03713796	     -4.10976248	      7.43155250
      3.73000000	      4.54339482	      0.85564498	    -31.93019312	     -0.18149453	      0.90445562	     -0.06699852	      6.89902638	     -8.19666161	      0.93388639	    -56.60520557	     11.08790611	     -7.53136284	      7.64111299	      4.58852821	    -15.37120585	    -20.68492493	     11.16070499	     -3.85449062	     -9.25262702	     -3.89132373	      7.05860623
      3.74000000	      4.61352871	      0.62708049	    -31.61407578	     -0.17640065	      0.90537183	     -0.06640497	      7.33082456	     -8.34305247	      0.03100839	    -56.08729095	     11.91126527	     -8.81268055	      6.92417385	      4.61304752	    -15.12895019	    -20.33001335	     11.25884040	     -3.74100008	     -9.45824481	     -3.66940621	      6.68708941
      3.75000000	      4.66839808	      0.41754002	    -31.28443488	     -0.17138209	      0.90619275	     -0.06579556	      7.75302460	     -8.47767782	     -0.88261086	    -55.42094683	     12.69607888	     -9.97911372	      6.24429803	      4.63372950	    -14.87613474	    -19.98949143	     11.37374413	     -3.63662333	     -9.64020162	     -3.45768883	      6.31430177
      3.76000000	      4.71240444	      0.22570643	    -30.95095412	     -0.16644181	      0.90691249	     -0.06515464	      8.16902374	     -8.60204087	     -1.80311049	    -54.62676139	     13.44379627	    -11.01855961	      5.60061424	      4.64986957	    -14.62453778	    -19.67185415	     11.49349162	     -3.54578089	     -9.80579014	     -3.25992689	      5.95352188
      3.77000000	      4.75127520	      0.04947477	    -30.61514792	     -0.16159465	      0.90753674	     -0.06447414	      8.57800482	     -8.71434305	     -2.72736091	    -53.72428625	     14.14617918	    -11.93410342	      4.99057964	      4.66270975	    -14.36981102	    -19.38275464	     11.61645481	     -3.46947501	     -9.96403174	     -3.07934189	      5.60684162
      3.78000000	      4.78503778	     -0.10865653	    -30.28982633	     -0.15685381	      0.90805750	     -0.06373087	      8.99327483	     -8.81553063	     -3.64282789	    -52.73885977	     14.79450313	    -12.75891406	      4.41680392	      4.67303128	    -14.12060750	    -19.12502320	     11.75872851	     -3.40438767	    -10.11393621	     -2.92172131	      5.28002251
      3.79000000	      4.81369775	     -0.25432258	    -29.97661289	     -0.15222595	      0.90848255	     -0.06292136	      9.41376500	     -8.89634179	     -4.53736345	    -51.68258731	     15.37706176	    -13.45674585	      3.87847909	      4.67606340	    -13.87843942	    -18.90265248	     11.91997141	     -3.35086701	    -10.26061850	     -2.78112866	      4.97596290
      3.80000000	      4.84109384	     -0.39666277	    -29.68083353	     -0.14771414	      0.90882982	     -0.06202947	      9.83166250	     -8.94633690	     -5.39777286	    -50.56502128	     15.88412025	    -14.03623928	      3.36846703	      4.66444282	    -13.64769054	    -18.71986005	     12.09860573	     -3.30705798	    -10.41282140	     -2.65277452	      4.70861398
      3.81000000	      4.84987018	     -0.52702478	    -29.39842726	     -0.14332638	      0.90906640	     -0.06106057	     10.27400185	     -8.96696872	     -6.22354602	    -49.40703803	     16.28477417	    -14.35850461	      2.91585940	      4.63818232	    -13.41053190	    -18.59029313	     12.32047489	     -3.26824048	    -10.54895862	     -2.53638097	      4.46046101
      3.82000000	      4.87195974	     -0.67574514	    -29.14202435	     -0.13905344	      0.90928316	     -0.05999383	     10.68015064	     -8.92901142	     -6.96911342	    -48.18505335	     16.63045148	    -14.65494303	      2.45687454	      4.58538541	    -13.21369364	    -18.48336426	     12.55459965	     -3.23647662	    -10.71762455	     -2.41699178	      4.25554193
      3.83000000	      4.88052258	     -0.82287011	    -28.91298537	     -0.13490506	      0.90942026	     -0.05882427	     11.09758225	     -8.83950686	     -7.63030944	    -46.92507827	     16.89508260	    -14.78859554	      2.03659046	      4.51074826	    -13.04927290	    -18.41555789	     12.82409770	     -3.20848789	    -10.87830449	     -2.29994465	      4.06063677
      3.84000000	      4.89740243	     -0.98930497	    -28.71076241	     -0.13086785	      0.90954155	     -0.05754934	     11.48011474	     -8.69774653	     -8.23048303	    -45.60875132	     17.08548183	    -14.80889577	      1.61737438	      4.41033198	    -12.88867906	    -18.37728691	     13.09543240	     -3.18825335	    -11.06453091	     -2.18219227	      3.92483971
